<?xml version="1.0" standalone="no"?><!DOCTYPE svg PUBLIC "-//W3C//DTD SVG 1.1//EN" "http://www.w3.org/Graphics/SVG/1.1/DTD/svg11.dtd"><svg t="1735634338467" class="icon" viewBox="0 0 1024 1024" version="1.1" xmlns="http://www.w3.org/2000/svg" p-id="20800" xmlns:xlink="http://www.w3.org/1999/xlink" width="128" height="128"><path d="M85.333333 896v-256a42.666667 42.666667 0 0 1 42.666667-42.666667h256a42.666667 42.666667 0 0 1 42.666667 42.666667v256a42.666667 42.666667 0 0 1-42.666667 42.666667H128a42.666667 42.666667 0 0 1-42.666667-42.666667z m85.333334-213.333333v170.666666h170.666666v-170.666666H170.666667zM597.333333 384V128a42.666667 42.666667 0 0 1 42.666667-42.666667h256a42.666667 42.666667 0 0 1 42.666667 42.666667v256a42.666667 42.666667 0 0 1-42.666667 42.666667h-256a42.666667 42.666667 0 0 1-42.666667-42.666667z m85.333334-213.333333v170.666666h170.666666V170.666667h-170.666666z" p-id="20801"></path><path d="M597.333333 640V384a42.666667 42.666667 0 0 1 42.666667-42.666667h256a42.666667 42.666667 0 0 1 42.666667 42.666667v256a42.666667 42.666667 0 0 1-42.666667 42.666667h-256a42.666667 42.666667 0 0 1-42.666667-42.666667z m85.333334-213.333333v170.666666h170.666666v-170.666666h-170.666666z" p-id="20802"></path><path d="M341.333333 640V384a42.666667 42.666667 0 0 1 42.666667-42.666667h256a42.666667 42.666667 0 0 1 42.666667 42.666667v256a42.666667 42.666667 0 0 1-42.666667 42.666667H384a42.666667 42.666667 0 0 1-42.666667-42.666667z m85.333334-213.333333v170.666666h170.666666v-170.666666h-170.666666z" p-id="20803"></path><path d="M85.333333 640V384a42.666667 42.666667 0 0 1 42.666667-42.666667h256a42.666667 42.666667 0 0 1 42.666667 42.666667v256a42.666667 42.666667 0 0 1-42.666667 42.666667H128a42.666667 42.666667 0 0 1-42.666667-42.666667z m85.333334-213.333333v170.666666h170.666666v-170.666666H170.666667z" p-id="20804"></path></svg>